<svg width="100" height="100" viewBox="0 0 100 100" fill="none" xmlns="http://www.w3.org/2000/svg">
  <!-- Outer Red Circle -->
  <circle cx="50" cy="50" r="48" fill="#D32F2F"/>
  
  <!-- Edge Spots (8 rectangles) -->
  <g fill="white">
    <!-- Top -->
    <rect x="44" y="2" width="12" height="14" rx="2" />
    <!-- Top Right -->
    <rect x="44" y="2" width="12" height="14" rx="2" transform="rotate(45 50 50)" />
    <!-- Right -->
    <rect x="44" y="2" width="12" height="14" rx="2" transform="rotate(90 50 50)" />
    <!-- Bottom Right -->
    <rect x="44" y="2" width="12" height="14" rx="2" transform="rotate(135 50 50)" />
    <!-- Bottom -->
    <rect x="44" y="2" width="12" height="14" rx="2" transform="rotate(180 50 50)" />
    <!-- Bottom Left -->
    <rect x="44" y="2" width="12" height="14" rx="2" transform="rotate(225 50 50)" />
    <!-- Left -->
    <rect x="44" y="2" width="12" height="14" rx="2" transform="rotate(270 50 50)" />
    <!-- Top Left -->
    <rect x="44" y="2" width="12" height="14" rx="2" transform="rotate(315 50 50)" />
  </g>

  <!-- Dashed Ring Details -->
  <circle cx="50" cy="50" r="34" stroke="black" stroke-opacity="0.1" stroke-width="1" fill="none"/>

  <!-- Inner White Circle -->
  <circle cx="50" cy="50" r="28" fill="white"/>
  
  <!-- Inner Detail Ring -->
  <circle cx="50" cy="50" r="24" stroke="#D32F2F" stroke-width="1" stroke-opacity="0.2" fill="none"/>

  <!-- Center Star (Red) -->
  <path d="M50 35 
           L54 46 L66 46 
           L56 53 L60 64 
           L50 57 
           L40 64 L44 53 
           L34 46 L46 46 Z" fill="#D32F2F"/>
</svg>
